# xmcd
#
# Track frame offsets:
#	150
#	17845
#	37710
#	57812
#	80057
#	95860
#	113987
#	131587
#	149837
#	168717
#
# Disc length: 2511 seconds
#
# Revision: 1
# Processed by: cddbd v1.5.2PL0 Copyright (c) Steve Scherf et al.
# Submitted via: EZCDAudioConverter 5.0.0.1
#
DISCID=8f09cd0a
DTITLE=Blindside Blues Band
DYEAR=1993
DGENRE=Blues
TTITLE0=Bad Premonition
TTITLE1=Renegade
TTITLE2=Hit the Highway
TTITLE3=Blues in My Soul
TTITLE4=Flying
TTITLE5=Back Against the Wall
TTITLE6=Powerful Thing
TTITLE7=Burning Cities
TTITLE8=Early Grave
TTITLE9=Winner Takes It All
EXTD=
EXTT0=
EXTT1=
EXTT2=
EXTT3=
EXTT4=
EXTT5=
EXTT6=
EXTT7=
EXTT8=
EXTT9=
PLAYORDER=
